<?xml version="1.0" encoding="utf-8"?>
<!-- Generator: Adobe Illustrator 22.0.0, SVG Export Plug-In . SVG Version: 6.00 Build 0)  -->
<svg version="1.1" id="Layer_1" xmlns="http://www.w3.org/2000/svg" xmlns:xlink="http://www.w3.org/1999/xlink" x="0px" y="0px"
	 viewBox="0 0 200 200" style="enable-background:new 0 0 200 200;" xml:space="preserve">
<style type="text/css">
	.st0{fill:#201B18;}
	.st1{fill:#B5B5B5;}
</style>
<g>
	<path class="st0" d="M20.7,105.8c0-47.7,28.8-83.5,69.9-92.6c4.4-1,9-1.5,13.5-1.8c1.3-0.1,1.8,0.2,1.8,1.6c-0.1,2.8,0,5.7,0.1,8.5
		c0.1,1.3-0.4,2.1-1.6,2.4c-2,0.6-2.5,2-2.6,4c-0.3,6.5-0.9,13-1.2,19.5c-0.1,1.1-0.6,1.5-1.5,1.7c-3.4,0.9-6.8,1.7-10.2,2.6
		c-1.1,0.3-1.7,0-2.4-0.9C82,45.4,77.5,40,73,34.6c-0.9-1.1-1.5-1.5-2.8-0.5c-1.2,1-2.6,1.7-4,2.4c-1.2,0.6-1.4,1.2-0.8,2.5
		c3.1,6,6,12.1,9.1,18.1c0.7,1.3,0.5,1.9-0.5,2.9c-2.8,2.6-5.6,5.3-8.3,8.1c-0.9,1-1.7,1-2.8,0.5c-6.4-2.5-12.8-4.8-19.2-7.3
		c-1.2-0.5-1.8-0.4-2.3,0.8c-0.7,1.5-2.3,3.1-2.1,4.4c0.2,1.2,2.3,2,3.6,3c4.6,3.3,9.2,6.6,13.9,9.9c1,0.7,1.3,1.3,0.9,2.5
		c-1,3.1-2,6.2-2.7,9.4c-0.4,2-1.4,2.5-3.3,2.7c-5.9,0.7-11.8,1.6-17.7,2.3c-1.3,0.2-1.8,0.5-1.8,1.9c0,3.9-0.1,3.9,3.7,4.7
		c5.5,1.1,11,2.4,16.5,3.4c1.2,0.2,1.7,0.7,1.9,1.9c0.7,3.3,1.4,6.6,2.2,9.9c0.3,1.3,0.1,2-1.1,2.8c-5.1,3.3-10.1,6.8-15.2,10.1
		c-1.2,0.8-1.6,1.3-0.6,2.6c2.2,3.1,2.1,3.2,5.8,2.1c5.1-1.5,10.1-2.9,15.2-4.5c1.3-0.4,2-0.1,2.8,0.8c2.5,3,5,5.9,7.6,8.8
		c0.9,1,0.9,1.8,0.3,3c-2.7,5.1-5.2,10.3-7.8,15.4c-0.6,1.1-0.4,1.7,0.5,2.5c3.3,2.7,3.3,2.8,6.4-0.1c4-3.6,8-7.1,11.9-10.7
		c0.9-0.8,1.6-0.9,2.7-0.6c4.2,1.4,8.4,2.7,12.6,4c1.1,0.3,1.6,0.8,1.7,2.1c0.3,5.2,0.8,10.4,0.9,15.6c0.1,1.8,0.6,3.1,2.1,4
		c1.9,1.2,2.6,2.9,2.5,5.1c-0.1,2.2,0.1,4.3,0.3,6.5c0.1,1.2-0.3,1.5-1.4,1.4c-19.2-1.2-36.4-7.7-51-20.2
		C31.6,150.9,21.2,127.8,20.7,105.8z"/>
	<path class="st1" d="M109.6,64.3c-0.2-5.5-0.4-11-0.5-16.4c-0.2-7.7-0.3-15.4-0.5-23.2c0-1.5,0.4-1.9,1.9-1.7
		c2.9,0.4,4.7,2.3,6,4.7c2.4,4.3,3.3,9,4,13.8c0.5,3.3,0.8,6.7,1.3,10.4c1.4-2,2.5-3.6,3.7-5.2c2.8-3.9,5.8-7.7,9.6-10.7
		c1.1-0.8,2.2-1.6,3.4-2.1c5-2.3,9.5,0.1,10.5,5.5c0.9,5.1-0.4,10-1.8,14.8c-1.2,4.2-2.9,8.3-4.7,12.4c0.9,0.2,1.5-0.4,2.1-0.7
		c7.1-3.3,14.1-6.5,22-7.6c2.2-0.3,4.5-0.4,6.7,0.3c4.6,1.3,6.3,2.9,4.6,8.6c-0.8,2.8-2.7,5-4.7,7c-4.6,4.8-10,8.5-15.6,12
		c-0.7,0.5-1.4,0.9-2.6,1.7c4.9,0.1,9.2,0.2,13.6,0.8c4.2,0.5,8.3,1.4,12.1,3.2c1.8,0.9,3.4,1.9,4.8,3.3c4.4,4.4,3.8,7.8-0.9,12
		c-2.8,2.5-6.5,3-10,3.4c-5.1,0.6-10.1,0.8-15.2,0.9c-0.8,0-1.7-0.2-2.7,0.4c2.6,1.8,5.1,3.5,7.5,5.3c3.7,2.7,7.2,5.6,10.1,9
		c1.2,1.4,2.4,3,3.1,4.7c2.2,5-0.3,9.6-5.8,10.6c-3.4,0.7-6.7-0.1-10-1.1c-6.1-1.8-11.7-4.7-17.3-7.7c-0.3,0.9,0.3,1.5,0.6,2.1
		c3.2,6.9,6.4,13.7,8,21.2c0.3,1.3,0.4,2.5,0.5,3.8c0.2,5.5-4.1,8.9-9.6,7.4c-3.6-1-6.5-3.3-9.2-5.8c-4.4-4.1-8.1-8.8-11.6-13.6
		c-0.4-0.5-0.8-1.1-1.5-2c0,2.7,0,5,0,7.3c0,5.8,0.1,11.7-1.5,17.4c-1,3.8-2.7,7.3-7.2,8.2c-1.3,0.3-2.4,0.1-3.6-0.5
		c-0.9-0.4-1.3-1-1.3-2c0-12.5,0-25.1,0-37.6c0-0.2,0.2-0.5,0.2-0.7c16-0.4,28.5-6.7,36.5-21c6.7-12.1,5.4-27.8-3.4-38.5
		C133.2,68.5,122.2,64.5,109.6,64.3z"/>
	<path class="st0" d="M109.6,64.3c12.6,0.2,23.5,4.2,31.7,14.1c8.8,10.7,10.1,26.5,3.4,38.5c-8,14.3-20.6,20.6-36.5,21
		c0.4-20.9,0.8-41.8,1.2-62.7C109.4,71.6,109.5,68,109.6,64.3z"/>
</g>
</svg>
