<?xml version="1.0" encoding="utf-8"?>
<!-- Generator: Adobe Illustrator 22.0.0, SVG Export Plug-In . SVG Version: 6.00 Build 0)  -->
<svg version="1.1" id="Layer_1" xmlns="http://www.w3.org/2000/svg" xmlns:xlink="http://www.w3.org/1999/xlink" x="0px" y="0px"
	 viewBox="0 0 1080 1080" style="enable-background:new 0 0 1080 1080;" xml:space="preserve">
<style type="text/css">
	.st0{fill:#FFB600;}
</style>
<g>
	<path class="st0" d="M1074.1,557.5c-14.5,12.2-32.3,16.9-50.1,21c-7.9,1.8-16.1,2.4-24.1,3.6c-1.7,0.2-4.1-0.1-5,0.9
		c-7,7.2-4,16.9-5.9,25.5c-1.1,5.1,2.8,7,6.9,8.4c17.7,6.1,34.1,14.7,49,26.3c15.8,12.2,15.7,14.2,11.1,33.8
		c-3.1,13.4-10,19.3-23.6,20.7c-18.9,1.9-37.7,2.6-56.4-1.4c-7.1-1.5-11.6-0.6-13.7,7.2c-1.8,6.7-8,13-6.7,19.4
		c1.4,6.6,10,9,15.4,13.3c14.4,11.6,26.8,24.9,36.9,40.4c3.4,5.2,3.7,9.8,0.8,15.4c-16.9,32.3-14.4,26-43.1,22.7
		c-16.1-1.9-31.1-7.6-45.4-14.7c-5.6-2.8-9-2.7-13.3,2.5c-14.7,18.1-15,18-1.3,36.9c10.8,15,19.7,30.8,25,48.7
		c1.8,5.9,1.3,10.8-3.5,15c-2,1.7-3.6,3.8-5.5,5.6c-17.2,16.2-10.6,17.2-37.3,6.7c-16.9-6.6-32-16.7-45.5-28.7
		c-4.3-3.8-7.3-4-12-0.6c-18.8,13.8-18.9,13.6-10.4,35.2c6.7,17.1,11.2,34.8,12,53.3c0.3,5.9-1.8,9.9-6.8,13
		c-28.8,17.5-23.6,18.9-51.3-3.6c-11.9-9.7-22.4-21.3-30.6-34.5c-3-4.9-6.2-6.2-11.5-3.4c-4.6,2.5-9.4,4.8-14.4,6.2
		c-8.2,2.2-8.9,6.9-7.3,14.3c4.9,21.9,4.4,43.8-0.5,65.7c-1.4,6.1-4.2,9.7-10.3,11.4c-33.3,8.9-26.7,10.2-46-14.3
		c-10.2-12.9-17.2-27.7-22.2-43.2c-2.2-6.8-5.6-8.3-12.3-7.2c-21.2,3.5-21.2,3.3-24.2,24.2c-2.7,18.9-8.3,36.8-17.4,53.7
		c-2.7,4.9-6.1,7.4-11.7,7.2c-4.1-0.2-8.2-0.5-12.2,0.1c-13.5,2.2-20.8-3.8-25.6-16.2c-7.2-18.6-12.7-37.4-13.7-57.4
		c-0.3-5.5-1.7-8.1-7.8-9.1c-25-4-24.8-4.1-34.8,18.7c-7.3,16.6-16.9,31.8-29.7,44.9c-3.6,3.7-7.4,5.4-12.4,3.7
		c-1.9-0.7-4-0.8-5.9-1.4c-25.9-7.6-23.4-3.2-28-33.3c-2.6-16.6-1-33.1,2.6-49.3c1.3-5.9-0.2-9.1-5.8-11.6
		c-20.3-9-20.2-9.1-33.7,8.3c-11.7,15-25.5,27.8-41.6,38.1c-4.7,3-8.8,3.5-13.8,0.8c-31.8-17.4-27.3-12.7-23-45.4
		c2.1-15.6,7.4-30.5,14.8-44.5c2.8-5.4,2.3-8.9-2.9-12.4c-6.8-4.5-12.7-12.4-19.8-13.6c-7.1-1.1-12.3,8.3-18.6,12.8
		c-14.4,10.1-29.8,18-46.4,23.8c-6.6,2.3-11.8,1.2-16.6-3.6c-22.9-23.1-21.7-17.7-9.8-46.5c6.1-14.8,15.1-28.3,26.2-40
		c5.2-5.5,5.2-9.5,0.4-14.8c-5-5.6-8.5-14.1-14.7-16.8c-6.5-2.8-13.7,4.5-20.7,7.1c-16.7,6.1-33.8,10.7-51.7,11.5
		c-6.5,0.3-11-1.6-14.4-7.4c-17-28.7-17.7-23.5,3.6-49.9c9.9-12.3,21.9-22.5,35.2-31c5-3.2,5.4-6.3,3.3-11.5
		c-8.6-21.6-8.4-21.8-30.7-19c-18.9,2.4-37.6,1.4-56.3-2.7c-5.5-1.2-8.7-4-10.1-9.4c-8.3-32.1-12-27.6,15.5-48.6
		c12.6-9.6,27-16.1,41.9-21.1c6.1-2,8.6-5.1,7-11.6c-2-7.8,0.4-17.8-4.8-23.4c-5.1-5.4-14.9-2.2-22.6-3.7
		c-16.9-3.3-33.4-7.8-48.9-15.4c-5.4-2.6-8.3-6.2-9.2-12.5c-3.8-25.9-0.6-31.9,23.5-41.4c16.4-6.5,33.5-9.7,50.9-11.2
		c5.8-0.5,8.3-2.4,8.5-8.3c0.3-7.8,5-16.3,1.7-23c-3.2-6.6-13.1-6.3-19.9-9.4c-16-7.4-30.6-16.6-44.1-27.9
		c-5.3-4.4-7.3-9.5-5.3-16.2c0.3-1.1,0.5-2.3,0.8-3.4c7.1-26.7,4-25.1,35.1-29c16.5-2.1,33.1-0.9,49.3,2.7c5.2,1.1,7.9-0.5,10.1-5.4
		c9.8-21.6,9.9-21.5-8.4-35.7c-13.9-10.8-25.6-23.6-35.7-38c-4.3-6.1-5.7-11.8-1.2-18.4c2.4-3.6,4.2-7.6,6.5-11.4
		c8.1-13.6,9.4-14,25.4-11.9c20.4,2.7,39.9,8.2,58.2,17.5c4.6,2.3,7.2,1.4,10.3-2.4c16.4-20,16.4-19.9,1.3-40.3
		c-10.6-14.4-18.6-30.1-23.9-47.2c-1.8-5.7-0.9-10.2,3.5-14.2c1.9-1.7,3.6-3.8,5.5-5.6c17.6-16.6,11-17,36.4-7.5
		c17.6,6.6,32.9,17.3,47,29.6c4.3,3.7,7,3.4,11.2,0.3c18.2-13.4,18.1-13.2,9.9-33.6c-7.1-17.6-12-35.8-11.9-55.1c0-5.9,2-10,7-13
		c27.3-16,24.1-16.9,46.9,1c13.4,10.5,24.6,23,33.8,37.3c3.3,5.1,6.2,6.2,12,3.8c23.8-9.8,23.8-9.5,20.2-34.9
		c-2.5-17.8-0.8-35.3,3.2-52.8c1.2-5.1,3.9-8,8.9-9.5c31-9.5,28.5-11.4,48.6,15.7c9.4,12.7,15.9,27.1,20.9,42
		c1.9,5.7,4.7,8.1,10.9,6.7c7.6-1.7,17.2,0.5,22.7-4.4c5.6-5,3.2-14.8,4.6-22.4c3.2-17,8.3-33.2,15.7-48.8c3.4-7.1,8-10.1,15.7-9.3
		c3.7,0.4,7.7,0.6,11.3,0c12.9-2.4,19.1,4.5,23.6,15.2c7.4,18.2,13.3,36.6,13.8,56.4c0.2,6.9,2.7,10.1,10.2,11.1
		c22.4,3.1,22.3,3.5,31-16.7c7.5-17.5,17.6-33.4,30.6-47.4c1-1.1,1.9-2.2,3.1-3c8.9-5.7,38,5.9,40.5,16.1
		c5.4,21.5,5.5,43.2,0.6,64.7c-1.8,8.1-0.1,12.7,8,15.2c6.9,2.1,13.7,7.6,20.3,7.1c6.7-0.5,8.6-10,13-15.3
		c11.7-14.3,24.7-26.9,40.2-37.1c5.6-3.7,10.6-3.9,16.2-0.7c29.3,16.8,25.8,11.5,21.8,43.7c-2,16.3-8.1,31.5-15.2,46.2
		c-2.5,5.2-1.9,8.5,2.8,11.8c6.4,4.5,12,12.1,18.9,13.4c7.4,1.4,12.5-8,18.7-12.5c15-10.8,31.1-19.2,48.8-24.7c4.6-1.4,8-0.8,12,2.3
		c6.9,5.5,12.2,12.5,18.2,18.7c3.5,3.6,2.5,7.4,1.2,11.4c-6.7,21.4-17.5,40.6-32.3,57.3c-5.6,6.3-6.2,10.8-0.5,17.7
		c13,16,12.6,16.4,31.2,8.9c17.4-7,35.3-11.5,54.1-12.3c7.3-0.3,12.4,2,15.5,8.5c0.1,0.3,0.3,0.5,0.5,0.7
		c15.7,26,16.1,21.6-3.6,46.3c-10.2,12.7-22.5,23.6-36.3,32.5c-4.7,3-6.5,5.9-3.8,11.3c3.4,6.7,4.6,15.4,9.5,20.3
		c5.8,5.8,14.3-0.2,21.4-1.1c18.1-2.1,35.9-1.1,53.8,2.3c6.4,1.2,10.3,4.3,12.1,10.8c9.1,32.8,10.6,26.7-15.6,46.9
		c-12.8,9.9-27.5,16.3-42.7,21.4c-5.5,1.9-7,4.9-6.6,10.4c1.7,23.1,1.6,23.3,24.4,26.7c18.3,2.7,35.7,7.8,52.2,16.3
		c3.4,1.7,6.6,3.7,8.7,7C1074.1,535.4,1074.1,546.4,1074.1,557.5z M549.1,955.3c19.9,0.7,39.6-1,59.1-4.1
		c127.4-20.3,225.5-85.4,294.9-194c12.6-19.6,23-40.4,31.4-62.2c3.7-9.4,2.1-15.5-5.6-18.3c-19.9-7.3-40-14.1-60.2-20.7
		c-7-2.3-12.6,0.3-15.8,7.2c-1.5,3.1-3,6.3-4.4,9.5c-15.1,34.8-35.9,66-62.3,93c-68.4,70-151.5,104.3-249.9,101.1
		c-43.4-1.4-84.6-11.6-123.6-30.1c-75.9-36-130.5-92.8-163.7-170.1c-4.9-11.4-9.6-13.4-21.2-9.4c-17.1,5.8-34.1,11.6-51.2,17.5
		c-13.5,4.7-15.6,9-10.2,22.2c25.2,62,63.1,115,114,158.4C357.8,921.1,447.5,954.2,549.1,955.3z M965.7,542
		c-0.8-51.8-8.4-99.8-25.6-146.1c-18.6-49.9-45.1-94.9-82-133.6c-8.2-8.6-13-8.4-21.3-0.2c-12.4,12.3-24.7,24.6-37,37
		c-12.8,12.8-12.9,17.2-1,30.6c0.8,0.9,1.6,1.7,2.3,2.6c48.6,56,73.5,121.1,75.6,195.1c0.7,25.4-2.1,50.5-6.3,75.4
		c-2.4,14,0.7,18.9,13.7,22.6c16.8,4.8,33.5,9.6,50.3,14.4c14.6,4.2,18.6,1.9,21.8-13.1C962.5,598,964.9,568.8,965.7,542z
		 M135.7,543.5c1.3,26.5,3.1,56.7,10.1,86.2c2.7,11.4,7.4,14.3,18.9,11c16.5-4.7,32.9-9.6,49.4-14.4c17-5,19.1-8.6,16.1-26.5
		c-6.5-38.9-8.1-77.9-1.7-117c9.9-60,36.5-111.6,76.5-156.9c8.3-9.4,8.1-14.7-0.9-24c-13-13.3-26.1-26.5-39.3-39.6
		c-7.1-7.1-14.2-7.3-21.3-0.3c-5.8,5.7-11.1,11.9-16.2,18.2C165.7,355.9,137.1,443.1,135.7,543.5z M546.2,213.2
		c70.4,0.5,131.7,19.1,187.2,56.6c6.5,4.4,12.7,9.3,19.2,13.6c6,4,11.9,4.4,17.2-1.5c14-15.5,28.1-31,42.1-46.6
		c4.6-5.1,4.6-10.6,0.1-15.7c-2.7-3-5.8-5.7-9-8.2c-27.6-21-57.4-38.6-89.2-52.4c-66.2-28.7-135.2-39.5-206.9-32.1
		c-45.8,4.7-89.5,17.1-131.2,36.6c-29.6,13.9-57.1,31.2-82.9,51.3c-8.3,6.5-9.9,13.4-4.1,20.1c13.8,16.1,28.1,31.7,42.4,47.4
		c4.3,4.7,9.6,5.2,15,1.9c3-1.8,5.8-3.9,8.6-6C412.4,235.2,477.6,214.2,546.2,213.2z M430,539.1c-0.1-5.5-4.5-9.1-9.5-12.5
		c-44-29.9-87.9-59.9-132-89.7c-10.9-7.4-15.8-5.5-19.6,7.1c-18.6,62.3-19.6,124.7-1.6,187.3c5.6,19.2,9.6,20.7,26.4,9.3
		c26.5-17.9,52.9-36,79.3-54c16.3-11.1,32.6-22.4,48.9-33.5C426.5,550,429.9,546.2,430,539.1z M845.6,539.3
		c0.9-33.6-5.2-65.8-14.6-97.4c-3.2-10.6-8-12.3-17.6-7c-1.8,1-3.5,2.1-5.2,3.3c-42.8,29.1-85.6,58.2-128.4,87.3
		c-12.5,8.6-12.6,19.1-0.2,27.7c43.5,29.7,87,59.3,130.5,88.8c12,8.1,17.5,6.2,21.5-7.7C840.7,603.1,846.6,571.5,845.6,539.3z
		 M508.5,266.5c0.4-17.9-2.9-20.5-19.5-16.7c-5.4,1.3-10.7,2.8-16,4.4c-57.5,16.5-106,47.8-147,91c-8.8,9.2-7.5,15,4,20.7
		c12.5,6.2,25.1,12.1,37.7,18.2c35,17.1,69.9,34.3,104.9,51.2c14.6,7.1,22.3,3.1,24.1-12.8c1.8-15.8,2.5-31.8,3.7-47.7
		C503.2,338.3,505.9,301.9,508.5,266.5z M511.5,820.5c-1.7-7.2-1-15.4-1.6-23.5c-3.4-44.9-6.9-89.8-10-134.7
		c-1.2-18.4-9.6-23.7-26.5-15.6c-10.7,5.2-21.5,10.4-32.2,15.6c-37.1,18.1-74.3,36.1-111.3,54.4c-9.4,4.6-10,9.8-2.6,17.7
		c5.4,5.7,11,11.3,16.6,16.7c43.2,41.6,94.5,68.1,152.9,81.2C507.4,834.7,511.6,831.4,511.5,820.5z M592.7,803.7
		c-0.8,29.4,0.3,30.2,22.7,24.6c61.7-15.5,114-46.8,157.7-92.9c10.2-10.8,9.5-16.4-3.8-22.9c-47.3-22.9-94.6-45.9-142-68.6
		c-14.2-6.8-23.2-1.3-24.2,14.5c-0.7,12.5-1.4,24.9-2.4,37.4C598,733.9,595,772.1,592.7,803.7z M604.6,247.1
		c-10.4-0.6-13.7,3.4-13,13.3c3.9,53.6,7.8,107.1,11.5,160.7c1,14,9.3,19.6,21.8,13.6c49-23.4,98-47.1,146.8-70.8
		c10.2-5,11-10.5,3.1-18.9c-31.8-33.8-68.3-61.2-111.5-79.1C643.7,257.8,623.5,251.4,604.6,247.1z M447.5,539.4
		c-3,55.5,45.7,104.3,101.8,103.7c57.7-0.6,103.6-45.3,104-102.5c0.4-56.5-46.4-103.4-103.2-103.5
		C492.9,437,447.6,482.2,447.5,539.4z"/>
	<path class="st0" d="M480.7,902.3c-2.1,10.2-4.1,18.9-5.7,27.6c-1.1,6-3.5,8.3-10.1,7c-6.7-1.4-6.7-4.7-5.4-10
		c3.9-16.1,7.4-32.3,11.3-48.4c0.8-3.4,0.5-8.4,5.8-8.4c5,0,9.5,1.5,11.8,7.1c4.6,11.2,9.8,22.2,15.7,35.6c1.5-11.8,3-21,3.9-30.4
		c0.6-6.6,4.9-7.2,9.9-6.6c5.7,0.7,4.5,4.9,4.1,8.7c-1.9,17-3.7,34.1-5.8,51.1c-0.4,3.4,0.6,8.8-4.9,8.6c-5.3-0.1-11.2,0.1-14-6.5
		c-4.4-10.4-9.2-20.7-13.8-31.1C483.1,905.6,482.3,904.7,480.7,902.3z"/>
	<path class="st0" d="M265.2,777.8c6.5-5.6,13.3-10.9,19.5-16.8c4.1-3.9,6.7-3.8,10.7,0.3c4.6,4.7,2.4,7.2-1.4,10.4
		c-12.8,10.9-25.5,22-38.4,32.8c-2.8,2.4-5.3,7.6-10,3.4c-4-3.6-8.1-7.7-5.6-14.3c3.5-9.5,6.7-19.2,10-28.8c0.6-1.9,1-3.8,0.2-7.3
		c-7.4,5-15.1,9.7-22.2,15.2c-5.5,4.3-8.4,2.5-11.8-2.5c-2.8-4.1-2.1-6.7,1.8-9.3c15.4-10.4,30.8-20.8,46.1-31.2
		c2-1.3,4.2-2.8,6.2-0.5c3.3,3.7,6.4,7.6,4.4,13.2c-3.4,9.6-6.6,19.2-9.8,28.9c-0.5,1.6-0.9,3.3-1.4,4.9
		C264.1,776.8,264.7,777.3,265.2,777.8z"/>
	<path class="st0" d="M804.7,815.3c-7.9-8.7-13.9-15.8-20.4-22.4c-4.8-4.8-2.1-8.2,1.2-11.8c4.3-4.8,6.6-0.4,9,2.1
		c11.7,12.2,23.3,24.3,34.7,36.8c2.5,2.7,7.4,5.6,3.9,10.2c-3.5,4.7-7.8,8.5-14.8,6.2c-11.6-3.8-23.3-7.1-36.2-9.2
		c5.1,7,10.1,14.2,15.5,21c3.8,4.8,5.4,8.4-0.6,13c-6.1,4.6-8.1,0-10.8-3.7c-9.8-13-19.6-26-29.2-39.2c-2-2.7-6.7-5.4-3-9.6
		c3.4-3.9,7.6-6,13.2-4.3C778.9,807.9,790.7,811.2,804.7,815.3z"/>
	<path class="st0" d="M453.2,875.7c-0.1,9.6-2.3,16.5-9,20c-7,3.7-7.3,8.8-6.3,15.2c0.4,2.9,1.1,5.8,0.9,8.6
		c-0.2,3.3,2.1,8.9-3.8,8.7c-4.9-0.1-11.1-0.9-11.7-8c-0.5-5.8-0.5-11.6-0.2-17.4c0.3-6.4-3.5-8.8-8.6-10.1c-5.9-1.4-5.3,4.1-6.9,7
		c-1.7,3-2.9,6.3-4.1,9.6c-2.3,6.5-6.6,6-11.9,3.9c-5.9-2.4-3.6-6.1-2-9.9c6.6-15.5,13.4-30.9,19.7-46.5c2.3-5.8,5.2-7.5,11.2-4.8
		c6.8,3.2,14,5.6,21.1,8.3C449.8,863.4,453.4,869.3,453.2,875.7z M422.2,867.9c-3.6,0.1-4.7,5.3-4.3,8.5c0.9,7.3,8.5,6.6,13.5,8.1
		c4.3,1.3,6.8-2.2,7.2-6.6C439,873.3,431.3,868.1,422.2,867.9z"/>
	<path class="st0" d="M585.1,943.1c-3.7,0.4-6-1.1-8-4.1c-6.6-9.9-26.7-8.8-32,1.6c-2.9,5.7-7.8,4.9-12,3.6
		c-5.3-1.6-2.1-5.8-1.2-8.7c5.5-17.2,11.3-34.2,16.7-51.4c1.6-5,4.5-6.9,9.5-7.2c5.1-0.3,9,0.7,11.1,6.1c7,17.2,14.2,34.4,21.4,51.5
		C593.1,940.4,591.8,943.5,585.1,943.1z"/>
	<path class="st0" d="M872.1,778.6c-9.1-5-11.9,3.2-16.1,8.3c-4.4,5.2-10.1,9.7-4.4,18c3.1,4.6-1.8,8.1-5.2,10.6
		c-4.2,3-5.5-1.4-7-3.9c-9.5-15.6-18.8-31.4-28.4-47c-2.6-4.3-3.1-7.7,0.6-11.7c3.5-3.8,6.6-6.8,12.6-4.7
		c17.3,6.1,34.8,11.5,52.1,17.5c2.6,0.9,7.6,0.8,5.6,5.6C880.2,775.1,878,779.4,872.1,778.6z"/>
	<path class="st0" d="M728.2,832.9c18.4,0.2,33.3,14.9,33.5,33.2c0.2,18.1-15.8,33.7-34.3,33.5c-18.4-0.2-33.8-16-33.5-34.5
		C694,847.5,709.7,832.8,728.2,832.9z M747.7,866.5c0.2-11.8-8.3-20.8-19.7-20.9c-11.1,0-20,8.6-20.1,19.7
		c-0.1,11.3,8.2,20,19.4,20.2C739,885.6,747.5,877.8,747.7,866.5z"/>
	<path class="st0" d="M376.4,863.1c-0.2,5.3-5.7,8.3-10.5,5.7c-2.6-1.4-5.2-2.7-7.5-4.5c-5.9-4.7-9.1-1.6-12.5,3.4
		c-3.8,5.9,0.3,7.6,4.2,9.9c5.5,3.2,11,6.5,16.5,9.7c3.7,2.1,4.6,4.8,2.3,8.7c-2.1,3.6-4.6,5.1-8.5,2.7
		c-11.1-6.8-22.3-13.6-33.5-20.5c-3.6-2.2-3.3-5.1-1.2-8.2c10.5-15.3,21.1-30.7,31.5-46.1c2.2-3.2,4.3-4,7.9-1.8
		c9.3,5.9,18.8,11.6,28.3,17.3c3.4,2,5.5,4.1,3.1,8.3c-2.4,4.4-5.2,5.8-9.8,3.1c-5-3-10.3-5.4-15.3-8.4c-4.4-2.6-7.4-1.8-10.2,2.4
		c-3.4,5,0.1,6.6,3.5,8.6c3,1.8,6,3.6,9,5.4C375.3,859.9,376.7,861,376.4,863.1z"/>
	<path class="st0" d="M625.5,938.3c-5.2,1.2-6.2-2.5-6.9-6.4c-1.9-10.6-3.8-21.1-5.6-31.7c-2.3-13.7-2.3-13.8-16.1-12.1
		c-4.3,0.5-7.3,0.5-8.2-4.8c-0.8-4.6,0.5-7.1,5.3-8.1c14-2.7,27.9-5.5,41.8-8.4c4.8-1,6.9,0.8,8.1,5.3c1.2,4.6-0.9,6.2-4.7,7.5
		c-14.6,5-14.5,5.1-11.1,20.5c2,9.1,4,18.1,5.9,27.2C635.7,935.9,634.1,937.9,625.5,938.3z"/>
	<path class="st0" d="M347.4,811.5c-0.6,3.4-2.6,5.2-4.5,7c-2.3,2.1-4.1,0.7-6.2-0.6c-13.4-8.2-13.4-8.1-23.8,4.2
		c-6,7.1-12.1,14.1-18,21.3c-3.4,4.2-6.3,6.4-11.2,1.7c-4.3-4.1-5.9-7.1-1-12.1c7.8-7.8,15-16.2,22.4-24.4c8.2-9.1,8.2-9.2-0.4-17.8
		c-3.8-3.8-7.3-7.2-1.3-12c2.4-1.9,4.3-2.7,6.9-0.5c11.5,9.8,23,19.6,34.4,29.5C345.9,808.8,346.7,810.4,347.4,811.5z"/>
	<path class="st0" d="M915.5,716.3c-0.4,0.8-0.8,1.9-1.4,2.9c-5.6,10.1-11.4,20.2-16.9,30.4c-2.3,4.3-4.9,4.8-9.1,2.4
		c-15.8-9.1-31.8-17.9-47.8-26.7c-3.8-2.1-4.9-4.3-2.5-8.3c2.3-3.7,4.2-7.2,9.4-4.3c11.6,6.5,23.5,12.6,35,19.3
		c5.8,3.4,9.3,2.9,12.2-3.6c2.5-5.5,5.9-10.6,8.9-15.9c1.8-3,4.3-3.7,7.4-2C912.9,711.8,915.6,712.6,915.5,716.3z"/>
	<path class="st0" d="M197.9,738.8c-0.1-2.9,2.3-3.9,4.2-5c15.5-9.1,31-18,46.4-27.2c4.7-2.8,7.3-1.4,9.7,2.9
		c2.4,4.3,3.6,7.7-1.8,10.8c-15.6,8.9-30.9,18.1-46.5,27C204.6,750.4,197.6,745.3,197.9,738.8z"/>
	<path class="st0" d="M691.5,914.5c0.5,6-3.6,6.4-6.7,7.6c-3.2,1.2-6.4,1.7-7.9-2.5c-6.4-18.1-12.8-36.2-19.1-54.3
		c-1.5-4.2,1.3-5.9,4.7-6.8c3.4-0.9,8-4.1,9.9,1C679.1,878,685.4,896.8,691.5,914.5z"/>
	<path class="st0" d="M688.2,174.6c-0.5,6.5-1.9,13.5-7.6,17.6c-6.4,4.7-6.7,10.3-5.5,16.9c0.4,2,1.1,4,0.9,6
		c-0.2,3.2,2.7,8.5-1.5,9.1c-4.9,0.7-10.7-1.3-12.3-7.4c-1.3-5-1.7-10.3-2.4-15.5c-0.7-4.9-3.4-8-8.4-8.6c-5.9-0.7-4.9,4.6-6.2,7.7
		c-0.9,2.1-1.4,4.4-1.8,6.7c-1.3,7.6-6.2,5.9-11.3,4.8c-5.6-1.2-6.8-4.2-5.1-9.5c5-16.1,9.8-32.3,14.4-48.5c1.7-5.9,4.3-8.3,10.6-6
		c7.3,2.7,15,4.6,22.4,7.1C683.3,158.2,688.1,165.1,688.2,174.6z M663.3,182c5.8,0.2,8.7-2.5,9.2-7.6s-5.6-9.3-13.2-9.5
		c-6.6-0.2-6.5,5.4-6.7,9.1C652.3,181.5,659.5,180,663.3,182z"/>
	<path class="st0" d="M394,204.9c-1.4,5.1,1.4,8.4,5.7,11.1c2.7,1.7,5.5,3.5,7.7,5.7c2.3,2.4,9.1,3,5.8,7.5
		c-2.8,3.7-8.3,7.1-13.9,3.8c-4.8-2.7-9.2-6.1-13.6-9.5c-4.2-3.3-8.2-2.6-11.9,0.4c-4.2,3.5,0,6.2,1.3,9c1,2.1,2.1,4.2,3.5,6
		c4.2,5.5,1.7,8.7-3.4,11.8c-5,3-8.1,2.7-11.1-2.8c-8.1-15.1-16.5-30-25.1-44.8c-3-5.1-1.9-7.8,3-10.3c6-3,11.7-6.5,17.6-9.6
		C377.9,173.7,394.3,183.7,394,204.9z M372,193.5c-4.8-0.2-14.9,6.3-14.2,9.1c1.1,4.1,2.3,8.8,7.2,9.8c4.2,0.9,12.5-6.1,12.6-10.1
		C377.8,197.9,376.5,194.3,372,193.5z"/>
	<path class="st0" d="M612,201.3c0.4,3.2-0.2,5.2-2.8,5.2c-4.1,0-9.6,0.3-10.8-3.9c-3.6-12.4-13.4-10.7-22.5-11.4
		c-4.8-0.4-8.6,0.8-10.8,5.5c-1.1,2.4-2.8,4.6-5.8,4.8c-3.4,0.2-7.6,1.7-9.9-1.2c-2-2.5,1-5.4,2.2-7.9c7.9-16.5,15.9-33,23.7-49.6
		c2.2-4.6,4.4-7.5,10.5-6.6c5.8,0.9,9.5,2.3,11,8.7c4.4,17.8,9.5,35.4,14.3,53.1C611.6,199.4,611.9,200.8,612,201.3z"/>
	<path class="st0" d="M412.6,182.7c0.1-18.8,15.1-33.4,34.2-33.2c17.7,0.2,32.6,15.5,32.5,33.3c-0.2,19.3-15.5,34.6-34.4,34.3
		C427.2,216.8,412.5,201.1,412.6,182.7z M446,203.1c11.2,0,20.7-9.5,20.4-20.5c-0.3-11.2-9-19.4-20.4-19.3
		c-11.9,0-19.3,7.7-19.3,19.8C426.6,194.7,434.8,203.1,446,203.1z"/>
	<path class="st0" d="M519.3,203.3c-5.3,0.8-7.1-2.2-7.6-7c-1.3-12.4-3.1-24.8-4.2-37.2c-0.6-7-4-9.1-10.4-7.4
		c-1.4,0.4-2.9,0.5-4.3,0.8c-4.7,0.8-6.9-1.5-7.8-6c-0.9-4.7,1.6-6.5,5.5-7.1c15.2-2.2,30.4-4.5,45.9-4.5c4,0,6.7,1.1,7.1,5.7
		c0.4,4.7-1.7,6.7-6.1,7.9c-4.6,1.3-10.7-1.7-13.6,3.5c-2.3,4.2,0.4,9.1,0.8,13.7c0.7,9.5,1.8,19.1,3,28.5
		C528.4,200.7,525.7,203.5,519.3,203.3z"/>
	<path class="st0" d="M711.7,169c5,2,11.3,2.5,12.3,10.1c0.6,4.9,2.1,9.7,2.5,14.6c0.6,7.2,3.7,7.3,9.1,4.4
		c4.1-2.2,8.5-3.8,12.7-5.7c2.4-1.1,4.9-2,7.5-0.8c3.4,1.6,8.3,2.4,8.9,6.2c0.6,4.1-4.7,4.2-7.6,5.8c-2.7,1.6-5.7,2.8-8.8,3.9
		c-14.5,4.8-25.1,13.6-30.1,28.6c-1.6,4.8-4.2,9-10.9,5.5c-6.3-3.3-6.9-7.4-3-12.4c10.4-13.4,10.5-28.1,5.9-43.5
		c-1.2-3.9-1.7-7.9-2.3-12C707.6,171.2,708,168.8,711.7,169z"/>
	<path class="st0" d="M549.7,634.5c-47.6,1.6-94.3-39-94.6-94.1c-0.4-52.5,42.9-94.9,94.9-94.8c51.8,0,94.5,42.6,94.6,94.3
		C644.8,592.2,602.2,634.5,549.7,634.5z M611.8,541.3c0.1-26.3-13.7-47.6-37.9-57.2c-6.2-2.4-10.1-5.1-9.5-12.3
		c0.2-2.6-0.3-5.8-3.6-6.1c-7.5-0.9-15.1-1-22.6,0.1c-2.8,0.4-3.5,3.1-3.5,5.4c0.1,8.6-5.1,12.2-12.1,15.9
		c-26.7,13.8-39,44.7-29.6,72.6c9.8,29.3,37.8,46.2,68.3,41.3C590.9,596.3,611.7,571.7,611.8,541.3z"/>
</g>
</svg>
