<?xml version="1.0" encoding="utf-8"?>
<!-- Generator: Adobe Illustrator 22.0.0, SVG Export Plug-In . SVG Version: 6.00 Build 0)  -->
<svg version="1.1" id="Layer_1" xmlns="http://www.w3.org/2000/svg" xmlns:xlink="http://www.w3.org/1999/xlink" x="0px" y="0px"
	 viewBox="0 0 463 562" style="enable-background:new 0 0 463 562;" xml:space="preserve">
<style type="text/css">
	.st0{fill:#FFFFFF;}
</style>
<g>
	<path class="st0" d="M196.6,295.6c-8.6,6.8-18.4,11.7-27.7,17.3c-26.4,15.9-53.4,30.7-82.6,41.1c-10.3,3.7-21,6.5-32,7.2
		c-23.3,1.5-31.5-14.8-27.6-35c6-30.1,23.7-54,40.8-78.2c17.1-24.2,37.4-45.9,59.1-66.1c19.3-18.1,40-34.6,61.5-50
		c25.9-18.6,53.2-35.3,81.4-50.3c23.7-12.7,48.1-24.4,73.9-32.5c11.7-3.7,23.6-6.8,36.3-5.3c13.2,1.6,19.5,8.2,20.5,21.4
		c0.6,8.7-2.1,16.8-4.4,24.9c-0.9,2.9-2.5,3.1-4.5,0.9c-17.3-18.9-38.8-18-60.6-12.2c-34.3,9.2-63.5,28.4-92,48.6
		c-25.5,18.2-49.7,38.2-72.5,59.8c-13.1,12.3-23.7,26.6-34.4,41c-12,16.1-23.3,32.5-30.1,51.7c-2.2,6.1-2.5,12.5-1.2,18.8
		c1.5,6.7,8.6,11.1,18.1,11.8c16.2,1.2,31.9-1.5,47.3-6.5c10-3.2,20-6.5,30-9.7C196.1,294.8,196.4,295.1,196.6,295.6z"/>
	<path class="st0" d="M89.7,504.7c37.3-22.5,73.1-45.6,107.8-70.5c36.6-26.2,72.2-53.5,103.3-86.1c15.8-16.4,30.6-33.8,38.7-55.6
		c3.6-9.4,5-19,2.3-28.8c-2.9-10.5-6.9-13.9-17.8-14.8c-18.3-1.6-35.6,3-52.5,9c-8.8,3.1-17.5,7.1-26.2,10.5
		c-2.1,0.8-4.1,2.4-6.8,1.2c19.2-13.1,38.7-25.6,58.8-36.8c23.2-13,46.8-25.2,72.5-32.4c6.4-1.7,12.7-3.1,19.3-3.5
		c22-1,32.8,9.6,31.5,31.7c-1,18.3-7.8,34.7-16.6,50.5c-17.3,30.5-41,55.4-67.1,78.2c-45.6,40-96.6,71.9-149.5,101
		c-28.4,15.6-57.3,30-86.5,43.9C97.7,503.5,94.5,505.8,89.7,504.7z"/>
	<path class="st0" d="M408.9,176.3c-10.8-0.7-24.2-3.2-34.5-14.2c-9.4-10.1-8.9-23.5,1.2-32.8c18.9-17.4,54.3-17.7,73.5-0.7
		c12,10.7,11.1,26.9-2.2,37.3C438.2,172.6,425.8,176.4,408.9,176.3z"/>
	<path class="st0" d="M267,65.9c-3,0-4.4-1.3-5.2-3.1c-3.7-8.2-7.4-16.4-11.2-24.6c-0.6-1.4-1.2-2.5,0.6-3.4
		c1.4-0.6,2.3,0.2,2.5,1.5c1.7,7.4,5.9,5.1,10.4,3c8.5-3.8,8.6-3.7,12,4.7c0.7,1.7,1.6,3.5,2.1,5.3c0.9,3.4,4.7,6.6,1.7,10.1
		C276.6,63.6,271.1,64.2,267,65.9z M268.6,40.9c-2.9,1.4-6.9,2.5-10,5c-1.3,1,1.5,4.3,2.3,6.6c0.6,1.4,1.3,2.8,1.7,4.3
		c1.6,5.2,4.3,7.4,9.3,3.6c1.7-1.4,6.1-0.8,5-4.3c-1.9-5.3-3.5-10.9-7.1-15.4C270,40.6,269.7,40.7,268.6,40.9z"/>
	<path class="st0" d="M317,411.3c-1.3,1-2.9,2-4.2,3.5c-1.4,1.7,0.7,2.7,1.4,3.8c1.6,2.3,3.5,4.6,5.2,6.9c0.7,0.9,1.6,2,0.2,2.9
		c-1.2,0.7-2.1,0-2.9-1c-1.7-2.5-3.8-4.9-5.4-7.4c-2.3-3.6-3.9-0.9-5.9,0.2c-2.5,1.4-2.3,2.9-0.7,5c3.1,3.9,6,8,9,11.9
		c0.7,0.9,2.2,2,0.5,3.4c-2,1.6-2.2-0.5-2.9-1.3c-3.7-4.9-7.3-10-11-14.8c-1.4-1.9-1.6-3,0.6-4.5c4.6-3.2,9.1-6.8,13.7-10.3
		c2.5-2,5-1.9,7.1,0.7c3.5,4.4,6.9,8.7,10.4,13.1c0.7,0.8,1.9,1.9,0.6,2.9c-1.5,1.4-2.4-0.1-3.2-1.2c-3-3.7-5.9-7.6-8.9-11.4
		C319.7,412.6,319,411.3,317,411.3z"/>
	<path class="st0" d="M340.6,12.5c3.9-0.1,5.8,0.7,6.5,3.1c1.6,5.9,3.1,11.8,4.7,17.8c0.6,2.1-0.1,3.1-2.4,3.6
		c-3.7,0.8-7.4,2-11.1,3c-3.7,1-6-0.3-7.2-3.8c-0.8-2.3-1.6-4.7-2.1-7.2c-0.8-4.1-4.9-9.6-2.4-11.7
		C330.5,14.2,336.7,13.8,340.6,12.5z M347.6,31.9c-0.8-2.9-1.7-5.9-2.5-8.8c-2.2-7.8-2.1-7.4-9.6-5.8c-5.1,1.2-6.1,3.2-4.1,7.6
		c0.6,1.2,0.7,2.5,1.2,3.8c2.7,8.9,5.2,10,13.4,5.7C347,34,348,33.4,347.6,31.9z"/>
	<path class="st0" d="M99.6,178.4c-0.9-1.3-1.7-2.3-2.7-3.2c-3.5-3.6-7.1-7.1-10.7-10.5c-0.9-0.9-2.1-2-0.7-3.4
		c0.7-0.7,1.6-1,2.4-0.1c4.7,5.1,11,9,14.1,15.8c1,2.2,0.7,3.5-0.8,5.1c-3.5,3.6-6.9,7.2-10.3,10.9c-2.8,3.2-6,3.4-9,0.8
		c-4.3-3.5-8.3-7.4-12.5-11.2c-1-0.9-2.1-2-0.7-3.4c1.4-1.4,2.4-0.1,3.5,0.7c3.7,3.4,7.5,6.6,11.1,10.2c2.2,2.3,3.6,2.1,5.4-0.3
		c1.5-2.1,4.6-3.6,0.8-6.3c-1.5-1.2-2.8-2.7-4.3-3.9c-1-0.9-2-2-0.9-3.4c1.4-1.6,2.3-0.2,3.2,0.7c1.5,1.4,3,3,4.6,4.4
		c0.9,0.8,1.9,2.4,3.4,1.2C97.2,181.3,98.3,179.9,99.6,178.4z"/>
	<path class="st0" d="M282.2,47.3c-0.3-3.8,1.2-5.3,3.2-6.1c2.7-1,5.3-2.1,8.1-3c2-0.7,3.4-1.5,2.1-4.2c-1-2-1.6-3.4-4.2-2
		c-1.2,0.7-2.5,1-3.8,1.2c-0.6,0.1-1.4-0.6-1.7-1.2c-0.3-0.7,0.1-1.5,0.9-1.7c2.7-1,5.3-2.1,8.1-3.1c1.3-0.5,2.1,0.1,2.5,1.4
		c2.2,6.1,4.6,12.2,6.6,18.4c0.8,2.4-0.8,4.4-3.2,5.4c-2.1,0.8-4.3,1.7-6.5,2.4c-2.7,0.9-6.1,3.8-7.8,2.1
		C284,54.1,283.2,49.7,282.2,47.3z M289.8,53.5c3-3.2,9.3-1.3,10.2-6.6c0.3-1.9-0.2-6.9-3.9-6c-3.6,0.9-9,0.7-10.1,5.6
		C285.7,48.3,286.8,51.8,289.8,53.5z"/>
	<path class="st0" d="M304.4,27.4c-1.3,0.6-2.3,0.7-2.8-0.8c-0.3-1.2,0-1.9,1.2-2.1c4.3-0.8,2.2-3.4,1.7-5.7
		c-0.3-1.6-2.7-3.8,0.5-4.7c2.3-0.7,2.7,1.9,2.9,3.4c0.6,4.7,3.2,4.7,6.7,3.1c1.4-0.6,2.9-1,4.3-1.5c0.9-0.2,2.1-0.1,2.4,0.8
		c0.7,1.5-0.8,1.7-1.6,2.3c-2.7,2-8.3-0.1-8.2,5c0,3.5,2.2,6.8,3.2,10.4c0.9,3.6,1.5,6.6,6.7,4.3c3.4-1.5,2.3-3.2,1.7-5.4
		c-0.3-1.3-1-2.9,0.7-3.5c2.2-0.8,2.3,1.3,2.8,2.7c0.9,2.5,2.1,5.4-0.5,7.5c-3.2,2.5-7.3,3.2-11.2,4.1c-1.3,0.2-1.2-1.7-1.5-2.8
		c-1.7-4.9-3.5-9.7-5.1-14.7C307.4,27.7,307.1,25.7,304.4,27.4z"/>
	<path class="st0" d="M36.8,261.3c-2.3,4.6-5.4,9.4-8.9,13.9c-0.5,0.6-1.4,0.5-2-0.2c-1-1.2-0.3-2.4,0.3-3.1
		c2.4-2.3,3.4-5.6,5.2-8.3c1.5-2.2,0.9-3.8-1.2-5.3c-2.3-1.7-3.8-0.9-5.1,1.3c-0.8,1.4-1.6,2.5-2.4,3.9c-4.2,6.5-7.5,6.9-13.4,1.9
		c-1.9-1.6-2.7-3.6-1.6-5.6c2.5-4.5,5.3-8.8,8.1-13.2c0.6-0.8,1.5-1.4,2.4-0.8c1.4,0.8,0.9,1.9,0.2,2.9c-2.1,3.2-4.1,6.5-6.3,9.7
		c-1.9,2.8-0.5,3.9,1.7,5.4c2.4,1.6,3.8,0.8,5.1-1.4c1.4-2.3,2.8-4.6,4.3-6.8c1.6-2.1,3.7-3.7,6.4-2.1
		C32.7,255.2,36.4,256.3,36.8,261.3z"/>
	<path class="st0" d="M361.4,401.6c-2.2-2.5-4.9-5.2-7.1-8.2c-1.4-1.9-0.8-4.1,0.9-5.7c2-1.9,3.9-3.7,6-5.3c1.7-1.4,2.4-2.7,0.6-4.6
		c-1.7-2-3-1.6-4.7-0.1c-1.2,0.9-2.4,3.6-4.1,1.6c-1.6-1.9,1.3-2.7,2.2-3.8c3.2-4.3,6-3.9,9,0.3c2.3,3.2,5.3,6,8.1,8.9
		c1.2,1.3,2.3,2.5,2.2,4.5C374.5,390.8,363.5,401.6,361.4,401.6z M362.3,397.2c1.5-0.1,9.5-8,8.9-8.6c-1.9-2.1-3-5-6-5.7
		c-0.9-0.2-8.7,7.5-8.3,8.2C358.3,393.6,359.9,395.9,362.3,397.2z"/>
	<path class="st0" d="M53,239.1c-3,4.2-6,8.2-9,12.2c-2.1,2.7-4.6,3.5-7.5,1.5c-4.3-2.9-8.5-5.9-12.7-8.9c-0.9-0.7-2.2-1.5-1.6-2.7
		c0.8-1.6,2.7-0.7,3.5-0.2c3.6,2.1,7.3,4.4,10.5,6.9c3,2.4,5,2.1,6.8-1.2c0.8-1.5,1.9-2.9,3-4.2c1.9-2,1.3-3.2-0.8-4.6
		c-2.2-1.5-4.3-3.2-6.5-4.7c-3.2-2.2-5-3.4-6.4-3c-1.4,0.2-2.5,2-4.9,5.3c-1.3,2-3.9,6-5.6,6.3c-0.2,0-0.7,0.1-0.9-0.2
		c-0.2-0.2-0.1-0.7,0-0.9c1-3.2,3.7-6.8,3.7-6.8c2.4-3.2,2.4-3.4,3.7-5.2c2.5-3.6,5.4-3.9,8.9-1.4C42.3,231.2,47.5,235,53,239.1z"/>
	<path class="st0" d="M221.6,89.2c-1.9,0.3-2.1-1.2-2.5-2.1c-2.9-5-5.7-10.1-8.5-15.1c-1.7-3.1-1-5.6,2-7.3c3.1-1.9,6.5-3.4,9.5-5.3
		c3.1-2.1,5.2-2,6.4,1.9c0.5,1.6,3.1,3.4,1,5c-2.7,1.9-2.8-1.5-3.8-2.8c-0.9-1.2-1.7-0.9-2.9-0.6c-9.6,3.2-10.3,4.9-5.6,13.6
		c4.7,8.7,4.7,8.6,13.4,4.1c2-1,4.9-4.4,6.1-1.9c1.7,3.2-2.9,3.5-4.9,4.7C228.6,85.6,225,87.4,221.6,89.2z"/>
	<path class="st0" d="M416.2,349.6c-4.2,4.2-6.9,9-11.7,11.6c-4.1,2.2-6-2.1-8.6-4.2c-0.7-0.6-1.4-1.4-2.1-2
		c-9.3-9.1-9-10.7,1.4-18.9c2.3-1.9,4.5-2.1,6.7,0c4.3,3.9,8.5,7.9,12.7,11.8C415.1,348.5,415.6,349,416.2,349.6z M398.8,337.9
		c-0.6,0.2-1,0.2-1.3,0.6c-2.4,2.4-5.6,4.6-6.9,7.6c-1,2.3,2.7,3.7,4.3,5.4c1.9,2,3.8,3.8,5.7,5.8c1.3,1.3,2.4,1.5,4.1,0.5
		c7.3-4.6,7.6-7.9,1.5-13.6c-1.7-1.6-3.4-3.2-5.1-4.7C400.2,338.8,399.4,338.3,398.8,337.9z"/>
	<path class="st0" d="M87.1,529.2c5.8,0.1,10.8,8.7,7.3,13.4c-2,2.7-1.3,3.1,1,4.2c1.3,0.6,3.5,1.2,2.4,3.1s-2.8,0.2-4.1-0.2
		c-1.4-0.5-2.8-1.4-4.2-1.9c-5.9-2.2-7.4-1.2-6.9,4.9c0.1,1.3,0.2,2.4-1.3,2.8c-1.4,0.3-2.1-0.7-2.4-1.9c-1.9-6.3-3.7-12.5-5.6-18.8
		c-0.6-1.9,0-2.9,1.9-3.5C79.3,530.4,83,528.6,87.1,529.2z M91.9,539.2c-1.9-2.4-0.3-7.5-4.6-7.1c-3.1,0.3-8.5-0.3-9,4.4
		c-0.3,2.4-0.3,7.5,4.1,7.3C85.5,543.5,89.9,543.3,91.9,539.2z"/>
	<path class="st0" d="M265,471.1c-0.1,3-6.9,8.7-9.1,8c-1.9-0.6-1.6-2-0.3-3c1.2-0.9,2.5-1.7,3.8-2.5c1.4-0.9,2.5-1.7,1.2-3.6
		c-1-1.4-2.1-2.3-3.8-1.3c-1.4,0.8-2.7,1.6-3.9,2.4c-6.9,4.2-13.3,1-14.4-6.9c-0.3-2.3,1.3-3.6,2.9-4.6c3.4-2.2,6.8-4.2,10.3-6.4
		c1.4-0.9,2.5-0.8,3.4,0.6c3.2,5.2,6.5,10.4,9.6,15.8C264.9,469.8,264.9,470.7,265,471.1z M256.7,463.4c-2-2.3-2.1-5.7-5.3-6.1
		c-2-0.2-8.8,5.7-8.3,6.9c0.9,2.1,1.5,5.8,4.3,5.2C250.9,468.6,254,466.3,256.7,463.4z"/>
	<path class="st0" d="M146.2,139.9c-4.3-0.5-15.9-11.6-16.7-16c-0.3-1.7,0.6-3.1,1.7-4.1c3-2.7,6.1-5.2,9.4-7.6
		c2.4-1.9,4.6-0.8,6.7,1.2c7.8,7.5,7.6,10-1.7,15.3c-1.6,0.9-2.7,2.2-3.6,3.6c-0.9,1.4,0.5,2.4,1.3,3.5c1.2,1.3,2.3,0.6,3.6-0.1
		c1.5-0.8,2.5-3.4,4.9-2c1,0.6,0.8,1.9,0.2,2.7C150.7,138.4,149.1,140.4,146.2,139.9z M138.8,131.4c2.3-3.6,5.2-5.4,8-7.4
		c1.5-1,2.9-2.4,0.8-4.1c-1.9-1.5-2.3-5.8-5.9-3.7c-2.8,1.6-5.8,3.6-7.4,6.3c-1.9,2.9,2.8,4.1,3.5,6.5
		C137.7,129.5,138.1,130,138.8,131.4z"/>
	<path class="st0" d="M392.2,372.5c-1,4.1-4.7,6.6-8,9c-2.1,1.5-3.1-2-4.5-3.4c-2.8-2.7-5.3-5.6-8-8.3c-1.5-1.6-2.8-3.7-5.3-0.8
		c-1.3,1.4-3.1-0.5-2.3-1.3c4.1-3.8,0.2-5.6-1.6-7.8c-0.7-0.9-1.9-1.7-0.9-2.9c1-1.2,2.3-0.2,2.9,0.7c3.5,5.6,6.7,3.7,10-0.2
		c0.9-1,2.2-2.9,3.7-1.2c1.2,1.4-0.7,2.3-1.5,3.1c-5.2,5.6-5.2,5.6,0.2,11.2c1.2,1.3,2.3,2.5,3.7,3.7c1.6,1.4,2.5,4.7,5.8,1.7
		c2.5-2.3,3.8-4.3,0.5-6.8c-1-0.8-2.2-2.2-0.7-3.4c1.4-1.2,2.3,0.6,3.2,1.5C390.5,368.8,392,370,392.2,372.5z"/>
	<path class="st0" d="M446.6,313.2c-0.1,2-9.1,13.7-10.5,13.9c-0.5,0.1-1.2-0.1-1.4-0.5c-0.8-0.9-0.2-1.7,0.5-2.4
		c2.1-2.5,4.2-5.1,6.4-7.4c1.9-2,2.3-3.5-0.1-5.7c-2.7-2.4-4.3-1.6-6,0.8c-0.8,1-1.7,2.1-2.5,3.1c-4.6,5.3-9,5-12.9-0.9
		c-0.9-1.4-1.5-3-0.5-4.3c2.9-3.8,5.9-7.5,8.9-11.2c0.6-0.7,1.3-0.8,2-0.3c0.9,0.7,1,1.4,0.2,2.3c-2.2,2.7-4.3,5.4-6.7,8
		c-2.1,2.2-2,3.6,0.5,5.6c2.2,1.9,3.7,2.2,5.6-0.3c1.4-2.1,3.1-3.9,4.9-5.8c1.5-1.6,3.4-2.9,5.6-1.5
		C443.1,308.5,446.1,310,446.6,313.2z"/>
	<path class="st0" d="M201,75.2c-2.7,1.7-6.4,3.4-8.8,6c-1.9,2,1.3,4.1,2.3,5.9c2.2,3.8,4.6,7.5,6.9,11.4c0.7,1,1.3,2-0.1,2.9
		c-1.3,0.9-2.1,0.2-2.8-0.8c-3.4-5.4-7.8-10.4-9.8-16.2c-2.9-7.9,5.8-8,9.6-11.1c2.9-2.3,6.1-2.4,8.3,1.2c2.9,4.7,5.7,9.6,8.3,14.5
		c0.6,1.2,2.4,2.8,0.1,3.8c-2,0.9-2.5-1.2-3.4-2.4c-2.4-4.2-4.9-8.3-7.4-12.4C203.9,76.7,203.4,75.2,201,75.2z"/>
	<path class="st0" d="M328,387.1c0.8,0.7,1.6,1.3,2.1,2.1c2.7,4.6,5.4,4.3,8.7,0.7c1-1,2.4-3.6,4.1-1.9c1.9,2-0.9,3-2.1,3.7
		c-5.2,3-4.3,6.1-0.6,9.6c1.6,1.6,3,3.5,4.5,5.2c1.5,1.7,2.5,4.4,5.7,1.5c2.3-2.2,3.7-3.7,0.9-6.4c-0.8-0.8-2.5-1.9-0.9-3.2
		c1.5-1.3,2.3,0.3,3.2,1.3c3.8,3.7,3.7,6.3-0.5,10c-5.8,5.1-5.8,5.1-10.8-1c-1.9-2.2-3.7-4.5-5.6-6.7c-1.6-1.9-2.9-5.1-6-1.7
		c-0.5,0.5-1.5,0.6-1.9-0.5c-0.2-0.5-0.3-1.4-0.1-1.5c4.4-3,0.7-5-0.9-7.2c-0.7-0.9-1.7-1.7-1.2-3
		C326.9,387.7,327.5,387.4,328,387.1z"/>
	<path class="st0" d="M255.4,67.5c-2.8-5.9-5.3-10.9-7.5-16c-0.6-1.4-3.1-3.4,0-4.6c2.7-1,2.4,1.9,3,3.1c2.7,5.3,5.1,10.8,7.8,16.1
		c1.2,2.3,1,3.5-1.6,4.7c-17.1,8.2-14.2,8.6-22.4-6.8c-0.9-1.7-1.6-3.5-2.5-5.2c-0.7-1.4-1.9-3-0.1-3.9c2-1.2,2.4,0.9,3.1,2.2
		c2.1,4.2,4.4,8.1,6.1,12.4c1.5,3.6,3.4,4.1,6.5,2.1C250.3,70.1,253,68.9,255.4,67.5z"/>
	<path class="st0" d="M109.3,152.1c-3.1-3.8-5.6-5.4-8.5-1.2c-0.7,1-2.3,1.9-3.5,0.5c-0.9-1.2,0.3-2.1,1-2.9
		c0.7-0.7,1.5-1.3,2.1-2.1c3.2-4.6,6-3.6,9,0.3c2.5,3.2,5.6,6.3,8.5,9.3c3.4,3.4,3.5,6.6-0.1,10c-2,1.9-4.2,3.5-5.9,5.6
		c-2.8,3.2-4.6,3.6-7.9,0c-7.4-8.1-7.6-8,0.3-15.3C106,154.6,107.7,153.4,109.3,152.1z M116.6,160.7c-1.2-2.1-2.8-4.3-5.3-5.3
		c-1.2-0.5-8.7,6.7-8.3,8.1c0.7,2.9,2.9,4.7,5.4,6C109.1,169.9,116.6,162.1,116.6,160.7z"/>
	<path class="st0" d="M131.4,503.9c1.6-0.2,2,1.4,2.4,2.5c3.2,7.9,6.4,15.6,9.5,23.5c0.6,1.4,0.5,3.2-0.8,4.3
		c-4.4,3.7-10,4.6-15.2,6.5c-1.5,0.5-1.6-1.3-2.1-2.3c-2.1-5.1-4.3-10.2-6-15.4c-1.4-3.9,1-6.5,4.4-7.4c5.3-1.5,10.4-2.7,6.5-10
		C129.3,504.2,130,503.9,131.4,503.9z M139.9,530.7c-1.3-2.8-2.5-5.2-3.6-7.9c-2.8-7.6-2.7-7.4-10-5c-3.7,1.3-4.4,2.9-2.8,6.3
		c1.4,3,2.4,6.1,3.6,9.1c0.6,1.6,1.2,3.6,3.6,2.5C133.9,534.4,138,534.4,139.9,530.7z"/>
	<path class="st0" d="M152.8,530.8c-3.4,0-5.1-1-5.9-3.2c-1.7-4.5-3.5-8.9-5.2-13.4c-1.3-3.4-0.6-5.9,3.4-7.1c1.3-0.3,2.5-1,3.8-1.4
		c2.9-0.6,5.3-4.6,8.2-2.4c3.6,2.7,4.5,7.5,6.3,11.5c0.6,1.2-0.6,1.5-1.6,2.2c-3.1,1.9-6.5,3.1-9.8,4.6c-1.4,0.6-3.1,1-2,3.2
		c0.8,1.5,1.6,2.7,3.5,2.1c0.9-0.2,1.7-0.7,2.7-0.9c1-0.2,2.4-0.7,3,0.7c0.5,1.3-0.7,2.1-1.7,2.5
		C155.5,529.9,153.6,530.5,152.8,530.8z M149.6,518.9c2.3-2.7,8-0.9,8.5-5.9c0.1-2-0.6-6.3-4.3-5.3c-3.2,0.7-7.6,1.2-8.5,5.2
		C144.9,514.5,145.9,518.2,149.6,518.9z"/>
	<path class="st0" d="M75,196.7c7.1,1.9,8.1,3.9,5.2,8.1c-0.2,0.3-0.5,0.6-0.7,0.9c-7.1,8-4.7,7.6-12.4,1.2
		c-2.4-2.1-4.9-4.3-7.5-6.3c-1.4-1-2.4-2.8-5-1.6c-1.9,0.9-3.1,0.2-2.1-2.7c1-2.8-2.8-3.1-4.1-5c-0.7-1.2-2-2.1-0.6-3.5
		c1.2-1,2.3-0.5,3,0.5c4.5,5.7,7.4,2.4,10.4-1.6c0.8-1,1.9-3.2,3.6-2c2,1.5,0,3-0.9,4.3c-4.6,6.1-4.6,6.1,1.2,11.2
		c1,0.9,2,2.1,3.1,2.5c2.1,0.9,2.8,5.1,6.4,2.7C78.2,203.3,78.2,200.6,75,196.7z"/>
	<path class="st0" d="M183.7,85.4c-0.8,0.7-1.5,1.6-2.5,2.1c-5,2-3.5,4.6-1.2,7.8c1.5,2,2.9,4.1,4.1,6.3c2,3.5,4.1,5.6,7.8,2
		c0.8-0.8,2.3-1.3,3.1-0.2c1.3,1.6-0.3,2.4-1.4,3.1c-3.9,2.7-8,5.3-12,8c-0.9,0.6-1.7,1.6-2.9,0.2c-1.4-1.6-0.1-2.5,1-3
		c5.6-2.2,4.1-5.2,1.3-8.6c-1.4-1.6-2.5-3.4-3.6-5.2c-2-3.8-4.2-6.5-8.3-2.2c-0.9,0.9-2.4,1.6-3.5,0.1c-0.8-1.3,0.6-2.1,1.5-2.7
		c4.3-2.9,8.7-5.7,13-8.7C181.9,83.1,182.8,83.4,183.7,85.4z"/>
	<path class="st0" d="M107.4,547.7c-3.4,0.5-4.9-1-5.7-3.1c-0.9-2.3-1.6-4.7-2.3-7.1c-4.3-13.2-4.3-11.8,9.5-16.7
		c3.5-1.2,5.4,0.2,6.8,3.2c4.4,9.5,4.5,9.5-5.6,13.1c-1.4,0.6-2.9,1.2-4.3,1.6c-1.9,0.6-1.9,1.7-1.2,3.1c0.6,1.2,0.8,2.8,2.7,2.2
		c1.3-0.3,2.5-0.8,3.8-1.2c1-0.2,2.1-0.2,2.5,0.7c0.7,1.5-0.6,2.1-1.6,2.5C110.3,546.9,108.4,547.4,107.4,547.7z M109.8,524
		c-2.8,2.4-8.3,0.6-8.9,5.6c-0.2,1.7-0.1,6.3,3.7,5.4c3.4-0.7,8.2-0.3,9.1-4.9C114.1,528.4,113.3,524.8,109.8,524z"/>
	<path class="st0" d="M432.1,331.5c-0.3,0.7-0.6,1.4-1,1.6c-1,0.5-1.9-0.2-2.5-0.9c-3.6-3.2-7.3-6.3-10.7-9.6
		c-3.5-3.5-5.4-1.2-7.2,1.5c-1.6,2.4-6.6,4.2-1.7,8.1c3.7,3,7.2,6.5,10.7,9.7c0.9,0.8,2.5,1.6,0.9,3.2c-1.3,1.4-2,0-2.8-0.7
		c-4.3-3.9-8.6-7.6-12.7-11.7c-2.9-2.8-1.7-5.8,0.9-7.9c3.6-2.7,5-10.4,11.6-6.3c4.9,3,8.8,7.4,13.1,11.2
		C431.1,330.3,431.6,330.9,432.1,331.5z"/>
	<path class="st0" d="M190.2,489.8c-0.3-2.4,1.7-3.5,2.9-4.2c2.9-1.9,6-3.4,9.1-4.7c2.9-1.3,5.3-0.2,6.8,2.4c2.5,4.7,5,9.5,7.5,14.2
		c0.6,1.2,1.5,2.7,0,3.6c-1.9,1-2.8-0.7-3.5-2.1c-1.9-3.6-3.9-7.1-5.4-10.8c-1.9-4.5-4.3-4.3-8-2.3c-3.5,1.9-5.9,3.2-3.2,7.6
		c2.4,3.9,4.1,8.2,6.1,12.4c0.6,1.2,0.6,2.2-0.8,2.9c-0.8,0.3-1.5,0.3-2-0.3C196.6,502.3,193.3,496.1,190.2,489.8z"/>
	<path class="st0" d="M245.1,484.5c-0.1,0.9-0.3,1.6-1.3,1.7c-1.4,0.1-2.1-0.7-2.7-1.7c-2.2-3.8-4.3-7.8-6.5-11.6
		c-1.3-2.2-2.5-5.4-5.9-2.3c-2.3,2.2-9,1.7-5,8.1c2.4,3.8,4.5,8,6.7,12c0.7,1.3,1.3,2.4-0.3,3.4c-1.9,1-2.3-0.7-2.9-1.7
		c-2.8-5-5.6-10.1-8.2-15.2c-1-2.1-0.8-4.4,1.2-5.7c3.4-2.2,6.8-4.2,10.5-5.9c1.9-0.9,3.9-0.1,5,1.7c3,5.1,6,10.3,8.9,15.4
		C244.9,483.5,245,484,245.1,484.5z"/>
	<path class="st0" d="M163.1,504.7c-0.3-3.7,0.7-5.6,2.8-6.6c3.5-1.7,6.9-3.1,10.5-4.6c1-0.5,2.3-1,3,0.2c1,1.7-0.3,2.4-1.5,3
		c-2.4,1.2-4.7,2.5-7.3,3.4c-3.6,1.2-4.1,3-2.8,6.5c1.5,3.9,3.7,2.9,6.3,1.7c0.7-0.3,1.4-0.7,2.1-0.9c1.5-0.6,3.4-2.3,4.4,0
		c1.3,2.7-1.6,2.5-3,3c-4.7,1.6-7.4,3.9-3.9,9c0.7,1,0.7,2.3-0.8,2.9c-1,0.5-2,0-2.4-0.9C167.7,515.3,165.2,509.4,163.1,504.7z"/>
	<path class="st0" d="M49.6,206.2c-2.2,2.9-4.3,5.9-6.6,8.6c-2.4,2.8-2.7,4.7,0.7,7.4c3.6,2.8,5,0.9,6.8-1.6
		c0.1-0.1,0.2-0.3,0.3-0.5c1.5-1.4,2.5-5.3,4.9-3.5c2.7,2.1-0.7,4.4-2.2,6c-1.7,2-2.5,3.1-2.3,4.2c0.3,2.1,5.2,5.3,5.6,5.9
		c0.7,1.2,0.6,1.6,0.5,1.9c-0.3,0.5-1.7,0.2-2.4-0.2c-1.5-1-10.3-6.5-16.9-12.2c-0.8-0.7-1.9-2.9-0.8-4.9c2.7-4.7,6.3-8.7,9.8-12.7
		c0.6-0.6,1.4-0.8,2.1-0.1C49.3,204.8,49.3,205.5,49.6,206.2z"/>
	<path class="st0" d="M355.4,15.4c1.3,5.2,2.4,10.5,3.8,15.8c0.3,1.4,0.9,2.8-0.9,3.4c-2.1,0.7-2.1-1.2-2.4-2.3
		c-1.5-5.6-2.9-11.2-4.2-16.8c-0.9-3.8,0.9-5.9,4.4-6.7c3.4-0.8,6.7-1.5,10.2-2.3c4.4-1,6.9,1.2,6.3,5.4c-0.1,0.7-0.6,1.4-1.2,1.7
		c-0.6,0.3-1.7,0.6-2-0.3c-1.6-6.8-5.9-2.4-9-2.1C358.3,11.5,354.2,10.8,355.4,15.4z"/>
	<path class="st0" d="M276,438.2c0.6,0.7,1.3,1.5,2,2.4c2.5,3.8,5.3,7.5,7.8,11.5c1.6,2.5,3.1,2.9,5.6,1c2.7-2.1,5.6-4.1,8.5-5.9
		c0.7-0.5,1.4-1.5,2.4-0.2c1,1.3,0.6,2-0.8,2.7c-0.3,0.1-0.6,0.6-0.9,0.7c-4.6,2.3-8.6,9.1-13.8,6.6c-6.1-2.9-8.2-10.7-12.3-16.2
		C273.7,439.7,274,438.3,276,438.2z"/>
	<path class="st0" d="M124.1,125.9c1.9,0.7,2.8,2.3,3.1,3.8c0.3,1.3-0.6,2.2-2.4,2.1c-4.9-0.3-6.7,4.3-9.7,6.7
		c-1.5,1.2,0.2,2.8,1.3,3.9c3.1,3.6,6.5,7.2,9.6,10.8c0.9,1.2,2.4,2.4,0.9,3.9c-1.4,1.4-2.5-0.2-3.2-1.2c-3.9-4.2-7.8-8.6-11.6-12.9
		c-2.3-2.5-1.6-5.1,0.5-7.2c3.2-3.2,6.8-6.1,10.3-9.2C123,126.4,123.5,126.2,124.1,125.9z"/>
	<path class="st0" d="M339.3,419.8c-0.3,0.8-0.6,1.6-0.8,1.7c-0.7,0.1-1.7,0.1-2.1-0.2c-4.5-5.4-8.9-11-13.4-16.4
		c-0.6-0.7-0.6-1.4,0.1-2c0.3-0.3,1.3-0.6,1.4-0.5C329.6,408.1,334.4,413.9,339.3,419.8z"/>
	<path class="st0" d="M308.7,443.7c-0.3,0.3-0.7,0.9-1.2,0.9c-0.7,0-1.6-0.1-2-0.6c-4.1-5.6-8.1-11.1-12-16.7
		c-0.7-0.9-0.7-1.7,0.3-2.4c0.7-0.5,1.5-0.3,2,0.3c4.2,5.7,8.3,11.5,12.4,17.1C308.5,442.8,308.6,443.3,308.7,443.7z"/>
	<path class="st0" d="M213.6,475.9c3.4,6.1,6.6,12.3,10,18.5c0.6,1,1.2,2.1-0.1,3c-0.9,0.7-2,0.6-2.4-0.3
		c-3.1-6.7-8.7-12.5-8.8-20.4C212.7,476.4,213.1,476.2,213.6,475.9z"/>
	<path class="st0" d="M382.1,350.2c5.7,5.6,11.2,11,16.7,16.6c0.1,0.1-0.5,1.3-0.7,1.3c-0.7,0.1-1.6,0.1-2.1-0.3
		c-5-4.7-9.8-9.6-14.7-14.6C379.9,351.8,381,350.7,382.1,350.2z"/>
	<path class="st0" d="M184.7,489.8c1.2-0.1,1.7,0.8,2.1,1.6c2.5,5.1,5.1,10.3,7.5,15.4c0.6,1.3,0.7,2.9-0.6,3.6
		c-1.9,0.9-2.1-1.2-2.7-2.2c-2.5-5-5-10-7.3-14.9C183.4,492.2,182,490.4,184.7,489.8z"/>
</g>
</svg>
